HIERARCHY
ROOT Hips
{
 OFFSET 0.000000 0.000000 0.000000
 CHANNELS 6 Xposition Yposition Zposition Yrotation Xrotation Zrotation
 JOINT Chest
 {
  OFFSET 0.000000 9.585900 0.002600
  CHANNELS 3 Yrotation Xrotation Zrotation
  JOINT Chest2
  {
   OFFSET 0.000000 9.601200 -0.005300
   CHANNELS 3 Yrotation Xrotation Zrotation
   JOINT Chest3
   {
    OFFSET 0.000000 9.561800 0.000000
    CHANNELS 3 Yrotation Xrotation Zrotation
    JOINT Chest4
    {
     OFFSET 0.000000 9.552100 0.000000
     CHANNELS 3 Yrotation Xrotation Zrotation
     JOINT Neck
     {
      OFFSET 0.000000 14.453000 0.000000
      CHANNELS 3 Yrotation Xrotation Zrotation
      JOINT Head
      {
       OFFSET 0.000000 8.936500 -0.011300
       CHANNELS 3 Yrotation Xrotation Zrotation
       End Site
       {
        OFFSET 0.000000 17.073600 -0.006000
       }
      }
     }
     JOINT RightCollar
     {
      OFFSET -2.921100 9.558500 0.000000
      CHANNELS 3 Yrotation Xrotation Zrotation
      JOINT RightShoulder
      {
       OFFSET -13.519700 0.000000 0.000000
       CHANNELS 3 Yrotation Xrotation Zrotation
       JOINT RightElbow
       {
        OFFSET 0.000000 -29.696600 0.000000
        CHANNELS 3 Yrotation Xrotation Zrotation
        JOINT RightWrist
        {
         OFFSET 0.000000 -24.004700 0.000000
         CHANNELS 3 Yrotation Xrotation Zrotation
         End Site
         {
          OFFSET 0.000000 -17.728500 0.000000
         }
        }
       }
      }
     }
     JOINT LeftCollar
     {
      OFFSET 2.921100 9.558500 0.000000
      CHANNELS 3 Yrotation Xrotation Zrotation
      JOINT LeftShoulder
      {
       OFFSET 13.519700 0.000000 0.000000
       CHANNELS 3 Yrotation Xrotation Zrotation
       JOINT LeftElbow
       {
        OFFSET 0.000000 -29.696600 0.000000
        CHANNELS 3 Yrotation Xrotation Zrotation
        JOINT LeftWrist
        {
         OFFSET 0.000000 -24.004700 0.000000
         CHANNELS 3 Yrotation Xrotation Zrotation
         End Site
         {
          OFFSET 0.000000 -17.728500 0.000000
         }
        }
       }
      }
     }
    }
   }
  }
 }
 JOINT RightHip
 {
  OFFSET -7.771700 -0.012900 -0.001300
  CHANNELS 3 Yrotation Xrotation Zrotation
  JOINT RightKnee
  {
   OFFSET 0.000000 -40.869800 0.001200
   CHANNELS 3 Yrotation Xrotation Zrotation
   JOINT RightAnkle
   {
    OFFSET 0.000000 -39.717900 0.002100
    CHANNELS 3 Yrotation Xrotation Zrotation
    JOINT RightToe
    {
     OFFSET 0.000000 -4.965400 11.033500
     CHANNELS 3 Yrotation Xrotation Zrotation
     End Site
     {
      OFFSET 0.000000 -1.423100 5.872300
     }
    }
   }
  }
 }
 JOINT LeftHip
 {
  OFFSET 7.771700 -0.012900 -0.001300
  CHANNELS 3 Yrotation Xrotation Zrotation
  JOINT LeftKnee
  {
   OFFSET 0.000000 -40.869800 0.001200
   CHANNELS 3 Yrotation Xrotation Zrotation
   JOINT LeftAnkle
   {
    OFFSET 0.000000 -39.717900 0.002100
    CHANNELS 3 Yrotation Xrotation Zrotation
    JOINT LeftToe
    {
     OFFSET 0.000000 -4.965400 11.033500
     CHANNELS 3 Yrotation Xrotation Zrotation
     End Site
     {
      OFFSET 0.000000 -1.423100 5.872300
     }
    }
   }
  }
 }
}
MOTION
Frames: 9
Frame Time: 0.008333
-221.274878 57.797046 24.854607 173.167045 -44.893583 -3.066542 5.246856 21.631029 3.564281 2.730916 12.446621 1.850338 3.481842 15.465717 2.423622 2.730845 12.461768 1.841145 -2.072530 14.952790 3.917109 -5.330996 -7.773713 8.098102 1.996497 1.774052 1.032867 6.687237 -15.419735 -11.535620 -110.672360 -71.096697 147.634282 16.143549 32.760616 -11.562585 -9.783536 -0.038830 0.159927 -1.981504 -9.020140 10.635036 62.978269 -60.694581 -108.801257 4.073230 14.193557 4.852604 6.747705 -27.348866 -0.706144 -42.286360 73.345907 -45.031312 3.968952 -13.695318 11.333526 0.034324 -0.189017 0.003082 -7.033780 -25.782348 9.512569 59.793137 78.008849 60.016269 6.375549 -15.453797 -19.462197 0.059514 0.151546 0.025168
-221.272914 57.797999 24.847198 173.167462 -44.880444 -3.064817 5.251181 21.647606 3.564896 2.735791 12.446251 1.845261 3.491306 15.506765 2.415625 2.729716 12.434887 1.841575 -2.020027 14.947574 3.905982 -5.229421 -7.788928 8.058307 2.037385 1.798463 1.048417 6.664029 -15.344899 -11.582248 -110.918885 -71.022721 147.863667 16.129916 32.680813 -11.640732 -9.835961 -0.034131 0.087642 -1.980427 -9.048897 10.732400 63.040122 -60.707499 -108.820543 4.054205 14.203419 4.848966 6.741316 -27.364881 -0.715709 -42.325988 73.359620 -45.061065 3.977431 -13.705145 11.326671 0.044619 -0.193156 0.000279 -7.023127 -25.791528 9.522576 59.762345 78.016834 59.981968 6.374578 -15.450336 -19.463251 0.049460 0.145271 0.034294
-221.272934 57.797985 24.840109 173.167034 -44.868803 -3.050259 5.264755 21.673643 3.555276 2.726680 12.427908 1.840969 3.502057 15.528755 2.409155 2.723960 12.413455 1.848134 -1.969669 14.971407 3.889535 -5.138914 -7.783596 8.028723 2.053631 1.803290 1.054032 6.674581 -15.279560 -11.622399 -111.100135 -70.966495 148.015807 16.111527 32.613204 -11.713055 -9.853151 -0.037196 0.045953 -2.023509 -9.046345 10.780612 63.213100 -60.727510 -108.908813 4.015946 14.258833 4.841356 6.738020 -27.383033 -0.742775 -42.356602 73.383726 -45.088607 3.992736 -13.713164 11.317535 0.042667 -0.202864 -0.001909 -7.009642 -25.800438 9.517035 59.733301 78.024831 59.946080 6.372588 -15.452861 -19.454658 0.062156 0.143757 0.035111
-221.275522 57.797220 24.832986 173.159428 -44.861166 -3.014653 5.270320 21.678649 3.526395 2.717625 12.423019 1.839440 3.516702 15.549873 2.400182 2.717970 12.405286 1.855731 -1.927724 15.003339 3.874874 -5.068192 -7.755296 8.013262 2.069699 1.807997 1.058510 6.678330 -15.256007 -11.651425 -111.178767 -70.931995 148.073484 16.108345 32.547263 -11.781558 -9.863146 -0.045970 -0.001048 -2.065255 -9.049974 10.820924 63.266703 -60.744673 -108.912862 3.912568 14.243090 4.844063 6.724183 -27.403023 -0.785288 -42.383283 73.415064 -45.127743 4.008675 -13.714842 11.308982 0.036027 -0.218286 -0.004793 -6.988310 -25.809711 9.490476 59.748901 78.036726 59.944174 6.381888 -15.459088 -19.436141 0.040889 0.148403 0.026168
-221.275725 57.797143 24.825363 173.167881 -44.866844 -3.003365 5.273935 21.693047 3.513739 2.719515 12.431399 1.837775 3.516199 15.551921 2.395522 2.724383 12.418631 1.849797 -1.901541 15.035118 3.880408 -5.020588 -7.701005 8.017075 2.098425 1.817786 1.067727 6.642767 -15.286678 -11.654152 -111.141786 -70.952954 148.067533 16.092496 32.461428 -11.886394 -9.876453 -0.067470 -0.032675 -2.111873 -9.064503 10.849339 63.393883 -60.746296 -108.968617 3.854281 14.279652 4.830850 6.711403 -27.402837 -0.808341 -42.452485 73.434918 -45.189701 4.007040 -13.728718 11.297614 0.044474 -0.221043 0.001164 -6.982093 -25.801163 9.485413 59.712299 78.055688 59.891073 6.376980 -15.466273 -19.419105 0.045879 0.148514 0.024674
-221.275680 57.795841 24.818870 173.159032 -44.870250 -2.981263 5.292852 21.703087 3.502486 2.735769 12.451459 1.830012 3.493437 15.529561 2.407029 2.737481 12.446080 1.832369 -1.882099 15.088797 3.898648 -4.990755 -7.609556 8.042084 2.123923 1.822720 1.080477 6.642621 -15.270977 -11.693764 -111.321116 -70.922538 148.225707 16.087250 32.402010 -11.954961 -9.882870 -0.079891 -0.056653 -2.167781 -9.097841 10.871021 63.541337 -60.740004 -109.036160 3.790560 14.321454 4.808135 6.714263 -27.403384 -0.827079 -42.474157 73.446910 -45.213319 4.009796 -13.737152 11.292247 0.046800 -0.220756 0.003829 -6.965712 -25.793183 9.484817 59.718690 78.061632 59.864156 6.379891 -15.480399 -19.389888 0.028442 0.158708 0.018175
-221.278124 57.794437 24.811982 173.150862 -44.879398 -2.943830 5.308893 21.721158 3.476614 2.744125 12.466057 1.824630 3.491822 15.533682 2.405874 2.760901 12.501454 1.804799 -1.880713 15.126874 3.956893 -4.973145 -7.464853 8.088753 2.120634 1.775967 1.113718 6.719020 -15.241039 -11.789318 -111.571988 -70.850948 148.384648 16.090862 32.351798 -12.010837 -9.905706 -0.120605 -0.037065 -2.244160 -9.177886 10.849383 63.614666 -60.757537 -109.012453 3.722047 14.350774 4.778692 6.732586 -27.392900 -0.862431 -42.525700 73.459453 -45.258770 3.997653 -13.717441 11.277500 0.070286 -0.253548 0.017741 -6.946685 -25.783977 9.463580 59.691538 78.071726 59.826846 6.367939 -15.511621 -19.394823 0.047101 0.182762 0.030195
-221.276073 57.795792 24.803406 173.176862 -44.912682 -2.955800 5.302829 21.759697 3.477282 2.745820 12.471915 1.822345 3.532168 15.599112 2.381682 2.747983 12.478863 1.820050 -1.873126 15.239246 3.997741 -4.964679 -7.254077 8.153899 2.120770 1.761885 1.116536 6.741568 -15.268954 -11.813012 -111.691971 -70.832530 148.472803 16.118664 32.303768 -12.045501 -9.913731 -0.118743 -0.037741 -2.285846 -9.263954 10.840373 63.735463 -60.758067 -109.067692 3.647481 14.383185 4.738463 6.706910 -27.363333 -0.867413 -42.627512 73.479240 -45.350734 4.000942 -13.741587 11.257099 0.081620 -0.256716 0.026938 -6.974883 -25.739974 9.490713 59.665305 78.090629 59.762338 6.345945 -15.522293 -19.389114 0.079281 0.181973 0.043389
-221.276299 57.794150 24.797993 173.172622 -44.922993 -2.935830 5.312713 21.777044 3.464596 2.768515 12.505944 1.818360 3.531080 15.609872 2.378736 2.751800 12.492927 1.815723 -1.864385 15.391117 4.043047 -4.952294 -6.969755 8.224136 2.112071 1.740940 1.120415 6.742078 -15.314483 -11.812133 -111.732652 -70.826038 148.502010 16.141995 32.278696 -12.055978 -9.922353 -0.107336 -0.032083 -2.299276 -9.354111 10.837853 63.902912 -60.749394 -109.191753 3.565865 14.417099 4.686709 6.708800 -27.358732 -0.886869 -42.651249 73.491601 -45.378978 4.007209 -13.745390 11.253514 0.078017 -0.261149 0.026812 -6.967575 -25.728959 9.483218 59.751477 78.087414 59.822931 6.333091 -15.538505 -19.371142 0.057261 0.195394 0.034189
